# xmcd
# 
# Track frame offsets:
#     150
#     14390
#     34850
#     56980
# 
# Disc length: 892
# 
# Revision: 0
# Processed by: cddbd v1.5.2PL0 Copyright (c) Steve Scherf et al.
# Submitted via: fre:ac v1.0.17
# 
DISCID=30037a04
DTITLE=Nicholson - For What
DYEAR=2014
DGENRE=
TTITLE0=For What
TTITLE1=Rise and Fall
TTITLE2=Bad Man
TTITLE3=Cold Water
EXTD=
EXTT0=
EXTT1=
EXTT2=
EXTT3=
PLAYORDER=
